<svg viewBox="0 0 1024 1176.463" xmlns="http://www.w3.org/2000/svg"><path d="M324.694 666.396l61.504.24.68 119.808-57.184 1.04-3.038-37.113-.24-41.867zm459.627-3.04V793.56l-51.583 3.758-2.08-68.9-6.318-63.66zm-614.86-.4l86.374 4.48-7.758 51.306v48.746l5.478 20.915-83.576 3.917zm408.88-3.36l50.304 3.28-2 77.498 7.32 61.582-53.586-1.84-1.997-140.52zM417.828 319.694l-1.72 10.56 7.955 9.356-.56 15.474 7.04 10.797-1.88 13.12 1 1.4-73.86 2.96.8-6.08-26.11-14.157-.88-13.796 11.596-.56 1.16-23.913zm207.14-18.435l-.4 21.034 16.276.68-.64 12.797-31.552 20.713-3.44 10.317-74.377 3.6.4-7.36 4.48-7.2.4-6.157.04-9.117 2.678-6.238 1.24-6.4v-3.673l3.2-12.916zM980.585 58.85l-3.2 1.6c-95.102 46.043-205.575 82.788-321.298 104.693l-8.366 1.317c-74.138 9.6-182.107 19.234-278.48 24.793q-64.992 3.956-130.122 4.678c-4.688.19-10.19.3-15.72.3-21.972 0-43.546-1.71-64.596-4.998l2.338.3c-38.357-9.18-70.393-19.22-101.505-31.132l5.533 1.86-10.077-3.998 13.837 46.867-36.79 32.39 9.92 17.434 17.59 1.32 42.068 5.238 6.478 20.554 25.393 2.28 12.717 43.107 3.68.24s53.503 4.6 70.46 4.6c14.595 0 37.19-1.6 42.867-2l.96 15.835 11.476 2.16v12.595l-31.99 28.392 6.277 1.12c-5.598.4-9.077.72-19.994 1.2-5.705.347-12.372.546-19.085.546-10.217 0-20.327-.46-30.31-1.36l1.288.095c-7.87-1.454-17.606-2.676-27.484-3.387l-.908-.052h-2.24l-4.88 5.2-1.838 17.834h6.08l2.2 44.427 117.286-4.518-8.197 147.237-.8 13.876-89.654-5.078-.8-30.43h21.514l2.28-16.796 18.554-4.244 8.918-12.476-84.416-20.394-68.18 20.234 18.595 15.516h6.638l1 13.356 19.755 1.12v30.516l-24.433 6.278 7.598 16.156 4.2 2.718v32.99h13.717v131.802l-22.634 3.44 3.92 49.865 13.355 2.24-2.2 93.653 72.1 1.32-12.796-92.097 79.258-1.92-5.6 43.468-9.996 41.27 104.33 1.32 1.08-91.175 52.864-4.8-2.88 51.745-2.52 39.59h65.3l-2.12-91.975 7.04 1.08 2.68-55.664h-9.72l-2.318-13.595-5.238-51.584 1.96-54.543H454.1v-47.265l-14.556 1.08 1.6-32.23 17.195-1.72.92-14.076 6.877-1 20.395-15.555-73.06-14.995-68.38 15.156 11.437 18.753 9.554-.797 2.16-.16 1.358 17.675 16.396-.8.16 26.953-61.023-1.4 2.12-35.072 2.36-37.03v-48.505l1.92-46.067 139.36-7.117 166.15-9.6 1.32 26.953-6.08 77.937-2.515 67.706-52.785-.92-.24-40.708 22.954-.84 1.118-14.912 10.797-1.64-.48-2.28 6.08-.4 11.598-15.515-80.377-18.834-79.417 17.036 10.316 17.995 5.597-.403v3.56h9.837v16.075l20.954.32-.24 34.23H494.41l-.56 20.193 7.478.88-.84 39.108 15.715.8-1.76 144.56-20.913 4.32.64 16.914h7.04v39.388h11.556l-2.8 48.186-4.48 52.544 86.776 2.28-2.8-46.868-5.517-33.91-.88-23.713 52.985-.96-1.6 40.07-.36 53.183 41.308 3.28 50.066-2 21.312-6.278-9.997-30.39-2.118-39.988-3.2-23.313 49.306-1.8-2.28 29.672-.24 60.583 29.513 2.758 25.234-.64 16.636-5.198-7.478-56.944-1.96-34.47 9.998-1.08.24-35.79 3.2-.68-1.08-17.195h-12.116l-1.96-21.073-.92-107.648 8.877-.24v-36.072l3.84.56v-18.432l-13.355-1.08.24-33.43 22.794-2.04-1.32-14.476 10.396-.84-.96-4.68 23.193-11.595-82.217-16.516-75.178 15.195 9.237 17.275 8.918-.8.56 3.08h8.117l.44 17.035 21.873-.24 1.4 30.912-66.78-.48-8.48-58.263-7.117-33.03-5.798-58.743 3-29.83 153.836-11.717.48-52.625 8.04-2-.92-15.195-9.56-5.52h-1.478l-14.276 2-31.71 4.64q-32.433 4.747-64.982 8.64l-7.598.8-.6-7.12-31.39-16.394.24-10.998 10.835-.32.8-26.872c3.6-.24 14.077-.96 30.832-2.48 20.612-1.576 39.243-4.128 57.51-7.7l-3.085.504c23.872-5.6 58.063-11.197 58.063-11.197l3.04-.52 16.315-44.307 32.192-9.357 2.64-7.36 71.18-19.674 12.235-10.078L963.2 120.64l1.88-9.437 13.755-7.197 11.876-36.23-10.076-8.92z"/></svg>